<mxfile host="app.diagrams.net" modified="2024-01-05T15:47:57.702Z" agent="Mozilla/5.0 (X11; Linux x86_64; rv:121.0) Gecko/20100101 Firefox/121.0" version="22.1.16" etag="YZEK8mSwnrRuN5MfDH8r" type="github">
  <diagram name="Page-1" id="oCDXZnkKTY6f4eTkXA3r">
    <mxGraphModel>
      <root>
        <mxCell id="0" />
        <mxCell id="1" parent="0" />
      </root>
    </mxGraphModel>
  </diagram>
</mxfile>
